<svg width="8" height="8" viewBox="0 0 8 8" fill="none" xmlns="http://www.w3.org/2000/svg">
<path d="M3.625 5.625C3.625 5.72446 3.66451 5.81984 3.73483 5.89016C3.80516 5.96049 3.90054 6 4 6C4.09946 6 4.19484 5.96049 4.26516 5.89016C4.33549 5.81984 4.375 5.72446 4.375 5.625C4.375 5.52554 4.33549 5.43016 4.26516 5.35984C4.19484 5.28951 4.09946 5.25 4 5.25C3.90054 5.25 3.80516 5.28951 3.73483 5.35984C3.66451 5.43016 3.625 5.52554 3.625 5.625ZM3.75 3.25V4.6875C3.75 4.72187 3.77812 4.75 3.8125 4.75H4.1875C4.22187 4.75 4.25 4.72187 4.25 4.6875V3.25C4.25 3.21563 4.22187 3.1875 4.1875 3.1875H3.8125C3.77812 3.1875 3.75 3.21563 3.75 3.25ZM7.46641 6.6875L4.21641 1.0625C4.16797 0.978906 4.08437 0.9375 4 0.9375C3.91562 0.9375 3.83125 0.978906 3.78359 1.0625L0.533593 6.6875C0.4375 6.85469 0.557812 7.0625 0.75 7.0625H7.25C7.44219 7.0625 7.5625 6.85469 7.46641 6.6875ZM1.34531 6.46953L4 1.87422L6.65469 6.46953H1.34531Z" fill="white" fill-opacity="0.84"/>
</svg>
